<?xml version="1.0" encoding="iso-8859-1"?>
<!-- Generator: Adobe Illustrator 19.0.0, SVG Export Plug-In . SVG Version: 6.00 Build 0)  -->
<svg xmlns="http://www.w3.org/2000/svg" xmlns:xlink="http://www.w3.org/1999/xlink" version="1.1" id="Capa_1" x="0px" y="0px" viewBox="0 0 330.84 330.84" style="enable-background:new 0 0 330.84 330.84;" xml:space="preserve" width="512px" height="512px">
<g>
	<g>
		<path d="M276.18,0H86.58c-0.396,0.022-0.787,0.103-1.16,0.24h-0.36c-0.445,0.192-0.852,0.463-1.2,0.8l-54.52,54.8    c-0.333,0.336-0.604,0.729-0.8,1.16c-0.189,0.474-0.31,0.972-0.36,1.48c0,0,0,0,0,0.24V304.4    c0.022,14.609,11.871,26.44,26.48,26.44h221.52c14.609,0,26.458-11.831,26.48-26.44V26.48C302.66,11.856,290.805,0,276.18,0z     M82.66,14.2v22.28c0,10.014-8.106,18.138-18.12,18.16H42.26L82.66,14.2z M276.22,322.52H54.5    c-9.998-0.022-18.098-8.122-18.12-18.12V62.96h28c14.624,0,26.48-11.856,26.48-26.48v-28h185.2    c9.998,0.022,18.098,8.122,18.12,18.12l0.16,277.8C294.318,314.398,286.218,322.498,276.22,322.52z" fill="#9c099c"/>
	</g>
</g>
<g>
	<g>
		<path d="M125.34,115.48h-0.76c7.524-11.918,3.961-27.679-7.957-35.203c-11.918-7.523-27.679-3.961-35.203,7.957    c-5.253,8.322-5.253,18.923,0,27.245h-0.76c-10.749,0.022-19.458,8.731-19.48,19.48v27c-0.09,2.207,1.626,4.07,3.833,4.16    c0.109,0.004,0.218,0.004,0.327,0h75.16c2.209,0,4-1.791,4-4v-27.16C144.48,124.334,135.964,115.676,125.34,115.48z M136.5,157.84    H69.34v-22.88c0-6.163,4.997-11.16,11.16-11.16c0,0,0,0,0,0h10.52c2.173,0.396,4.256-1.045,4.652-3.218    c0.333-1.825-0.633-3.639-2.332-4.382c-7.912-5.258-10.063-15.934-4.805-23.845s15.934-10.063,23.845-4.805    s10.063,15.934,4.805,23.845c-1.266,1.905-2.9,3.539-4.805,4.805c-2.07,0.772-3.122,3.076-2.349,5.146    c0.705,1.89,2.707,2.959,4.669,2.494h10.64c6.164,0,11.16,4.997,11.16,11.16V157.84z" fill="#9c099c"/>
	</g>
</g>
<g>
	<g>
		<path d="M265.34,83.96L265.34,83.96l-99.36,0c-2.297,0-4.16,1.862-4.16,4.16s1.862,4.16,4.16,4.16h99.36    c2.298,0,4.16-1.862,4.16-4.16S267.638,83.96,265.34,83.96z" fill="#9c099c"/>
	</g>
</g>
<g>
	<g>
		<path d="M265.34,116.44h-99.36c-2.297,0-4.16,1.862-4.16,4.16c0,2.298,1.862,4.16,4.16,4.16h99.36c2.298,0,4.16-1.862,4.16-4.16    C269.5,118.302,267.638,116.44,265.34,116.44z" fill="#9c099c"/>
	</g>
</g>
<g>
	<g>
		<path d="M265.34,148.88h-99.36c-2.297,0-4.16,1.862-4.16,4.16c0,2.298,1.862,4.16,4.16,4.16h99.36c2.298,0,4.16-1.862,4.16-4.16    C269.5,150.742,267.638,148.88,265.34,148.88z" fill="#9c099c"/>
	</g>
</g>
<g>
	<g>
		<path d="M265.34,181.44h-200c-2.297,0-4.16,1.862-4.16,4.16c0,2.298,1.862,4.16,4.16,4.16h200c2.298,0,4.16-1.862,4.16-4.16    C269.5,183.302,267.638,181.44,265.34,181.44z" fill="#9c099c"/>
	</g>
</g>
<g>
	<g>
		<path d="M265.34,213.76h-200c-2.297,0-4.16,1.862-4.16,4.16c0,2.298,1.862,4.16,4.16,4.16h200c2.298,0,4.16-1.862,4.16-4.16    C269.5,215.622,267.638,213.76,265.34,213.76z" fill="#9c099c"/>
	</g>
</g>
<g>
	<g>
		<path d="M265.34,246.24h-200c-2.297,0-4.16,1.862-4.16,4.16c0,2.298,1.862,4.16,4.16,4.16h200c2.298,0,4.16-1.862,4.16-4.16    C269.5,248.102,267.638,246.24,265.34,246.24z" fill="#9c099c"/>
	</g>
</g>
<g>
</g>
<g>
</g>
<g>
</g>
<g>
</g>
<g>
</g>
<g>
</g>
<g>
</g>
<g>
</g>
<g>
</g>
<g>
</g>
<g>
</g>
<g>
</g>
<g>
</g>
<g>
</g>
<g>
</g>
</svg>
